PathFileType	4	(X/Y/Z)	c:/Users/goper/Files/vsCode/490R/osim_files/A03/A03_Fast_03.trc
DataRate	CameraRate	NumFrames	NumMarkers	Units                	OrigDataRate	OrigDataStartFrame	OrigNumFrames
250.00	250.00	6	36	mm	250.0	1520	2431
                Frame#	Time	LPSIS			LASIS			LTH1			LTH2			LTH3			LTH4			LLFE			LMFE			LSH1			LSH2			LSH3			LSH4			LLMAL			LMMAL			LCAL			LMTP5			LTOE			LMTP1			RPSIS			RASIS			RTH1			RTH2			RTH3			RTH4			RLFE			RMFE			RSH1			RSH2			RSH3			RSH4			RLMAL			RMMAL			RCAL			RMTP1			RTOE			RMTP5		
		X1	Y1	Z1	X2	Y2	Z2	X3	Y3	Z3	X4	Y4	Z4	X5	Y5	Z5	X6	Y6	Z6	X7	Y7	Z7	X8	Y8	Z8	X9	Y9	Z9	X10	Y10	Z10	X11	Y11	Z11	X12	Y12	Z12	X13	Y13	Z13	X14	Y14	Z14	X15	Y15	Z15	X16	Y16	Z16	X17	Y17	Z17	X18	Y18	Z18	X19	Y19	Z19	X20	Y20	Z20	X21	Y21	Z21	X22	Y22	Z22	X23	Y23	Z23	X24	Y24	Z24	X25	Y25	Z25	X26	Y26	Z26	X27	Y27	Z27	X28	Y28	Z28	X29	Y29	Z29	X30	Y30	Z30	X31	Y31	Z31	X32	Y32	Z32	X33	Y33	Z33	X34	Y34	Z34	X35	Y35	Z35	X36	Y36	Z36

1520	6.07600	-2410.20483	1052.15222	348.10062	-2660.91113	980.42096	452.17505	-2703.46997	632.19708	500.45261	-2727.10815	596.70703	498.16022	-2757.84448	658.43402	479.19434	-2771.43555	616.39545	479.90744	-2730.61304	549.42590	488.99084	-2755.36279	553.35968	334.55023	-2696.77808	459.60297	482.80859	-2703.97461	412.04886	478.71515	-2759.38330	459.89752	477.93588	-2754.91260	412.72247	471.03656	-2736.01465	96.08737	429.38217	-2746.51904	105.77480	333.28180	-2666.47632	80.98573	377.03296	-2887.65576	45.38915	435.93546	-2915.80933	80.99517	369.45001	-2886.17041	59.36316	323.94888	-2405.89209	1059.10913	266.02789	-2628.77637	945.55743	155.73907	-2516.77173	594.20618	95.69980	-2512.40381	549.99048	100.88478	-2577.62329	581.96454	94.52956	-2565.80981	539.28766	100.12205	-2525.90479	512.20746	113.47832	-2576.24780	502.19907	230.65872	-2447.07422	500.68692	115.50708	-2415.68530	473.54922	105.63953	-2484.46362	449.77078	111.00095	-2443.12646	427.55399	102.34798	-2196.97583	257.69284	172.49419	-2212.75659	228.91594	254.69269	-2141.46509	293.57855	226.58162	-2203.70898	92.38718	291.75955	-2232.47925	73.48791	240.52748	-2181.64893	78.82269	176.13327
1521	6.08000	-2415.66040	1053.19788	348.46707	-2666.13770	983.41736	452.96954	-2707.26904	632.53625	500.43448	-2730.61450	596.83649	498.02835	-2761.76270	658.43793	479.06693	-2775.78564	616.52539	480.29285	-2733.84082	549.63239	488.88446	-2758.55811	553.39856	334.48434	-2700.15503	460.02774	482.64783	-2706.34521	412.39719	478.70392	-2761.93774	459.62708	478.17532	-2757.39380	412.82147	470.99350	-2736.20508	96.20195	429.26566	-2746.71558	105.77473	333.21161	-2666.56470	81.21667	377.00494	-2887.83667	45.31204	435.86996	-2915.99731	80.66964	369.24246	-2886.29565	59.06925	323.83875	-2411.01562	1060.07031	266.11554	-2635.01074	947.12067	156.44940	-2528.60474	594.93781	95.74265	-2523.27979	550.95020	100.63797	-2587.57812	583.39941	94.40929	-2576.85840	540.66040	100.02808	-2537.08398	513.23260	113.31335	-2587.68750	504.13339	231.08836	-2460.21802	501.73569	114.71534	-2427.17212	474.92145	105.00087	-2495.73730	450.84610	110.89861	-2455.94287	428.41107	102.44533	-2206.84253	261.51367	172.05595	-2221.98730	232.65587	254.71017	-2153.95337	299.04202	225.02402	-2208.99146	95.35326	290.46384	-2237.59033	74.84142	239.46306	-2187.93994	82.46750	175.05789
1522	6.08400	-2420.43262	1054.47119	348.76361	-2672.22559	984.93878	453.63913	-2710.95605	632.83636	500.36398	-2734.04541	596.96405	497.99319	-2765.60327	658.43506	478.95358	-2778.72607	616.24152	479.63940	-2737.07178	549.80035	488.82373	-2760.74219	552.93304	334.32156	-2702.86279	460.40091	482.61935	-2708.63647	412.76965	478.57950	-2765.33521	460.13235	478.00500	-2759.83838	412.93530	470.86816	-2736.38428	96.29250	429.15903	-2746.90454	105.82473	333.15378	-2666.99048	82.03883	377.01205	-2887.97461	45.20671	435.72867	-2916.15259	80.33011	369.06403	-2886.39526	58.77588	323.72772	-2416.96606	1060.74854	266.62912	-2641.33105	948.71167	157.13812	-2539.20117	596.02600	95.62115	-2533.58105	551.89075	100.57747	-2598.20288	584.88397	94.45280	-2587.84497	542.06305	99.99612	-2547.15308	514.32410	113.06469	-2597.34937	505.38562	231.55252	-2471.80615	502.95929	114.11755	-2438.68774	476.33292	104.37036	-2507.15723	451.92526	110.85362	-2467.19531	429.62244	102.29053	-2215.89990	265.46133	172.27130	-2231.27148	236.07797	254.73526	-2166.27393	303.39371	224.38913	-2215.40259	98.78992	289.50656	-2243.42383	77.40823	238.44978	-2193.63257	86.36683	173.90326
1523	6.08800	-2426.28516	1055.51672	349.17725	-2678.13208	988.01837	454.31519	-2714.57324	633.12726	500.26196	-2737.42139	597.14630	497.84897	-2769.57959	657.89075	479.90613	-2782.22192	616.11957	479.47974	-2740.19458	550.02252	488.68069	-2763.80542	552.98987	334.17422	-2705.46167	460.83295	482.50534	-2711.05615	413.13977	478.56931	-2767.42798	460.02811	477.64713	-2762.16235	412.99911	470.79337	-2736.57568	96.41221	429.07962	-2747.06787	105.85280	333.11624	-2666.93408	81.58105	376.98538	-2888.12451	45.12948	435.66467	-2916.06494	80.36556	370.00497	-2886.51685	58.53490	323.63232	-2422.50122	1061.62000	266.93063	-2647.68994	950.39410	157.87927	-2549.84277	597.12354	95.46228	-2545.93164	552.75641	100.28912	-2608.87280	586.42017	94.55616	-2598.11279	543.53278	99.91592	-2559.87183	515.17767	113.45931	-2604.40283	505.43146	231.83554	-2482.33716	504.31735	113.87828	-2449.99609	477.67355	103.84312	-2518.61475	453.04871	110.87685	-2478.61743	430.89511	102.20851	-2226.89404	268.93735	171.23619	-2240.74316	239.37752	254.56900	-2178.07568	307.60464	223.95180	-2221.79248	101.95700	288.49991	-2250.14160	80.55043	237.53618	-2200.83105	90.53619	172.69336
1524	6.09200	-2431.85400	1056.62659	349.53891	-2683.88086	990.71356	454.99524	-2718.10913	633.41827	500.15823	-2740.72632	597.31244	497.71643	-2773.25244	657.83179	479.78903	-2785.59717	615.94232	479.33624	-2743.26440	550.22742	488.55957	-2767.77222	553.49469	334.05185	-2708.00586	461.22617	482.39722	-2713.39868	413.54083	478.51028	-2769.77759	459.74792	477.81403	-2764.40332	413.03888	470.70450	-2736.75562	96.56425	429.03049	-2747.25317	105.90292	333.07974	-2667.00220	81.75732	377.00916	-2888.25830	45.03144	435.56308	-2916.52051	79.82036	368.82181	-2886.62744	58.30375	323.57010	-2428.02588	1062.50891	267.21628	-2653.88672	952.04193	158.62529	-2560.42725	598.23907	95.42224	-2555.83838	553.89172	100.41116	-2619.56885	587.96759	94.74846	-2608.97412	545.02728	99.99791	-2572.84619	516.05139	113.58971	-2612.72363	506.01578	232.21786	-2493.46826	505.70761	113.41210	-2461.46143	479.09116	103.31905	-2530.01050	454.19852	111.00017	-2490.02515	432.18054	102.19418	-2237.09692	272.53909	170.66406	-2250.51440	242.24918	254.26561	-2188.91919	311.72116	223.82059	-2229.45117	105.14574	287.44373	-2257.68823	83.69069	236.42436	-2208.82642	94.66154	171.29808
1525	6.09600	-2436.66040	1057.81848	349.75595	-2689.23730	992.56177	455.83948	-2721.56567	633.71552	500.01993	-2743.97559	597.46692	497.54404	-2776.87402	657.81226	479.69748	-2788.98828	615.80566	479.25037	-2746.23315	550.41290	488.35110	-2769.78320	553.00085	333.86792	-2710.48511	461.59647	482.30508	-2715.60938	413.93729	478.39496	-2772.27783	459.73322	477.75482	-2766.61987	413.06320	470.65918	-2736.99170	96.76291	428.95419	-2747.47510	105.98999	333.01450	-2667.13574	81.94243	376.96228	-2888.40186	44.96688	435.50394	-2916.38306	79.84128	369.77878	-2886.73022	58.08979	323.51529	-2433.60522	1063.36768	267.38245	-2660.17310	953.67645	159.39217	-2571.00391	599.33246	95.41212	-2566.78003	555.05481	100.34647	-2630.20898	589.55847	94.97433	-2619.88745	546.55133	100.18417	-2583.14526	517.16693	113.86845	-2623.17212	507.63910	232.68245	-2504.97705	507.04636	113.03967	-2472.99976	480.47488	102.90836	-2541.40186	455.40002	111.09293	-2499.87842	433.80115	101.96591	-2247.41357	276.00864	170.19348	-2260.34009	245.00575	253.85701	-2199.13159	315.67358	223.42351	-2237.73511	108.12492	286.24295	-2265.96460	86.66943	235.16679	-2217.40869	98.61034	169.88098
